<svg width="533" height="341" viewBox="0 0 533 341" fill="none" xmlns="http://www.w3.org/2000/svg">
<g clip-path="url(#clip0_13034_18308)">
<rect width="533" height="341" fill="#FFD14B"/>
<path d="M16.3457 16.5958C12.3903 24.8235 8.43481 33.0512 4.65171 42.2705C0.868613 51.4898 -2.62226 61.4514 -6.55911 77.377C-10.496 93.3026 -14.773 114.89 -17.3814 127.182C-19.9898 139.473 -20.7999 141.814 -22.4498 151.447C-24.0998 161.08 -26.565 177.935 -27.8569 187.685C-29.1487 197.436 -29.1925 199.571 -26.8203 200.03C-11.6776 202.956 -4.62178 189.303 4.53536 180.703C10.1754 175.407 18.467 169.231 23.4492 165.045C28.4314 160.858 30.0154 159.106 46.4137 143.94C62.8121 128.774 93.9768 100.247 110.378 84.9282C127.714 68.735 129.009 66.3241 129.851 65.9578C130.13 65.8362 129.049 67.8901 125.219 80.4849C121.388 93.0796 114.569 116.676 110.368 130.476C106.166 144.276 104.789 147.566 100.099 161.609C95.409 175.653 87.4481 200.352 82.7361 216.159C76.2758 237.831 75.0873 250.452 74.1796 260.208C73.8238 264.033 73.2931 265.446 72.8384 272.224C72.3837 279.003 71.9218 291.073 104.209 253.533C136.496 215.994 201.546 128.478 243.334 75.2027C285.122 21.9277 301.676 5.54542 293.368 41.1734C285.059 76.8014 251.386 164.936 234.018 211.406C216.649 257.877 216.605 260.012 217.058 260.587C217.511 261.162 218.461 260.111 239.795 229.693C261.129 199.275 302.817 139.522 336.269 95.5766C369.72 51.6307 393.671 25.3023 404.721 14.2084C415.77 3.11453 413.192 8.05296 400.405 44.4628C387.617 80.8726 364.699 148.604 352.561 185.709C340.423 222.813 339.761 227.238 343.291 222.507C346.82 217.777 354.562 203.756 386.554 165.402C418.545 127.048 474.551 64.7869 500.657 46.9878C526.762 29.1887 521.271 57.7387 507.156 107.726C493.041 157.713 470.47 228.272 458.691 265.59C446.912 302.908 446.611 304.847 446.208 306.841C445.397 310.866 444.645 323.008 444.343 338.904C444.234 344.676 444.084 345.764 448.019 335.566C451.954 325.369 459.945 303.848 472.795 282.059C485.645 260.27 503.113 238.864 519.641 221.838C536.169 204.811 551.229 192.811 559.466 186.501C567.703 180.192 568.66 179.935 570.607 178.609" stroke="#FFDD78" stroke-width="68" stroke-linecap="round"/>
</g>
<defs>
<clipPath id="clip0_13034_18308">
<rect width="533" height="341" fill="white"/>
</clipPath>
</defs>
</svg>
