<svg width="257" height="257" viewBox="0 0 257 257" fill="none" xmlns="http://www.w3.org/2000/svg">
<path d="M139.671 107.477C160.949 68.4814 185.306 28.8555 194.156 7.62191C183.305 -7.01192 140.018 6.47905 137.219 21.4791L125.771 95.6426L67.2672 26.6518C55.9579 14.6241 26.7639 16.1398 20.6325 30.1002L119.781 111.521C127.237 115.47 136.381 113.508 139.671 107.477Z" fill="#2E81FF"/>
<path d="M147.702 139.811C187.357 161.039 227.648 185.347 249.244 194.17C264.15 183.3 250.478 140.026 235.217 137.247L159.763 125.894L230.045 67.2946C242.299 55.9685 240.794 26.7737 226.596 20.6599L143.613 119.924C139.585 127.386 141.57 136.528 147.702 139.811Z" fill="#2E81FF"/>
<path d="M116.845 147.728C95.7479 187.373 71.5891 227.654 62.823 249.246C73.6405 264.155 116.672 250.501 119.43 235.242L130.69 159.795L188.998 230.098C200.267 242.356 229.302 240.864 235.376 226.668L136.621 143.648C129.198 139.616 120.107 141.598 116.845 147.728Z" fill="#2E81FF"/>
<path d="M107.452 116.986C68.4657 95.8407 28.8508 71.6327 7.62143 62.8398C-7.01635 73.6372 6.45672 116.682 21.4552 119.459L95.6118 130.815L26.5994 189.027C14.5676 200.28 16.0714 229.313 30.0289 235.406L111.487 136.766C115.439 129.349 113.481 120.256 107.452 116.986Z" fill="#2E81FF"/>
</svg>
