<svg width="227" height="51" viewBox="0 0 227 51" fill="none" xmlns="http://www.w3.org/2000/svg">
<path d="M99.6664 47.3691C98.3166 47.7225 95.1808 47.7709 93.8683 47.4596C92.7054 47.1819 91.044 46.2943 90.2403 45.5223C89.2768 44.5926 88.2592 43.0613 88.4731 42.8614C88.8178 42.5417 91.9681 40.7517 92.1779 40.7559C92.2942 40.758 92.6534 41.1387 92.9774 41.6015C93.3014 42.0642 93.9098 42.6216 94.3314 42.8383C96.7196 44.073 99.791 43.2211 100.58 41.105C100.701 40.7811 100.8 39.7546 100.8 38.827V37.1379L100.152 37.6912C96.8048 40.5434 91.2351 39.1467 88.9964 34.8957C86.7785 30.6783 88.3069 25.2472 92.3233 23.0785C93.4218 22.4874 93.9057 22.357 95.2971 22.2834C97.3094 22.1761 98.354 22.439 99.7682 23.4024C100.358 23.8042 100.879 24.1344 100.925 24.1344C100.971 24.1344 101.008 23.7558 101.008 23.293V22.4517H105.784V31.2756C105.784 37.0012 105.703 40.4908 105.552 41.2144C104.904 44.3044 102.746 46.5614 99.6664 47.3691ZM18.8395 38.9827C16.8314 39.6663 14.0797 39.8325 12.1256 39.3886C8.51005 38.5683 5.23303 35.9916 3.66513 32.7354C2.64755 30.6236 2.36512 29.3489 2.3672 26.911C2.37551 22.4327 4.25699 18.8253 7.85382 16.3895C9.95543 14.9655 11.5358 14.4417 14.1503 14.305C16.4617 14.183 18.0878 14.4186 19.9547 15.1422C20.9619 15.5313 21.0574 15.6197 20.748 15.8489C20.4822 16.0446 20.4282 16.2759 20.532 16.7555C20.7252 17.6411 20.9391 17.7168 22.048 17.2856L23.0095 16.9154L24.0126 18.0492C24.8744 19.0231 26.2055 21.3284 26.002 21.4946C25.8297 21.6376 21.6742 23.5034 21.5309 23.5034C21.4395 23.5034 21.1405 23.0743 20.8664 22.5505C20.2413 21.3579 19.2196 20.4366 17.7763 19.7677C16.7774 19.3049 16.4451 19.2586 14.6508 19.3323C12.9209 19.4059 12.4931 19.5005 11.5462 20.0264C6.59535 22.7693 6.19454 29.9967 10.8069 33.3181C13.5128 35.2659 17.2384 35.0408 19.6557 32.7817C20.1603 32.3105 20.7418 31.5449 20.9494 31.08C21.1571 30.6152 21.4437 30.2344 21.587 30.2344C22.0085 30.2344 26.0394 32.1738 26.0394 32.3757C26.0394 32.4788 25.813 33.0131 25.5389 33.5642C24.3677 35.9053 21.8113 37.9709 18.8395 38.9827ZM118.772 39.3802C115.404 40.2511 111.709 39.2372 109.369 36.7972C105.786 33.0636 106.476 26.6228 110.775 23.6696C112.274 22.6389 113.443 22.2371 115.36 22.0941C118.994 21.8206 121.823 23.3961 123.326 26.5282C123.914 27.7524 124.346 30.3754 124.153 31.5491L124.022 32.3379L118.018 32.3379C114.716 32.3379 112.017 32.4094 112.019 32.4956C112.021 32.5819 112.23 33.032 112.486 33.4948C113.082 34.5759 114.772 35.4952 116.153 35.4888C117.271 35.4825 118.562 34.9293 119.266 34.1532C119.545 33.8482 119.841 33.5999 119.927 33.5999C120.195 33.5999 123.229 35.6992 123.229 35.8864C123.229 35.9832 123.015 36.3828 122.755 36.7762C122.082 37.7879 120.224 39.0037 118.772 39.3802ZM82.7331 39.1867C81.4102 39.6768 78.3409 39.7778 76.9391 39.3802C75.3048 38.9154 73.8345 38.0508 72.7048 36.8918C68.1215 32.1822 70.4225 24.0293 76.8062 22.3549C80.9866 21.259 84.9801 22.967 86.5957 26.5387C87.1544 27.7755 87.605 30.5962 87.4119 31.6395L87.2831 32.3379H81.269C77.9629 32.3379 75.257 32.3884 75.257 32.4515C75.257 32.8511 76.1749 34.2625 76.6546 34.6012C78.5132 35.9137 80.8724 35.7476 82.4548 34.1973C82.8743 33.785 83.2128 33.6105 83.3893 33.7135C84.4297 34.3151 86.4711 35.7644 86.4711 35.899C86.4711 35.9874 86.2074 36.4291 85.8834 36.8813C85.1836 37.8573 84.0165 38.7113 82.7331 39.1867ZM35.4863 38.4589L34.4106 39.4896H31.8978C30.5168 39.4896 29.3372 39.4076 29.277 39.3087C29.1399 39.0836 30.4524 36.8456 31.1688 36.0841L31.7005 35.5183L30.6455 34.3172C29.3206 32.8112 28.2677 30.8003 27.6904 28.6695C27.3145 27.2812 27.2584 26.627 27.3373 24.5762C27.4329 22.1551 27.9147 19.9275 28.3425 19.9275C28.4588 19.9275 29.387 20.5123 30.4067 21.2275C32.0992 22.418 32.2466 22.5737 32.12 23.068C31.8666 24.0503 31.9787 26.5345 32.3339 27.7355C33.1355 30.4658 35.4884 32.8995 38.2109 33.8187C39.3302 34.1952 39.92 34.2646 41.4111 34.191C43.0039 34.1153 43.44 34.0038 44.7961 33.3244C47.4314 32.0034 49.2277 29.5992 49.7822 26.6459L50.0169 25.3965H52.3573C52.5401 25.3965 52.7104 25.3965 52.8682 25.3944C53.8795 25.3902 54.3842 25.386 54.5835 25.6363C54.7829 25.8824 54.6791 26.3809 54.4714 27.3737C54.4402 27.5294 54.4049 27.6956 54.3676 27.8765C53.9543 29.9126 52.8557 32.3442 51.7551 33.6673L50.9057 34.6853L51.7489 35.5625C52.6647 36.5132 54.2907 39.0773 54.1412 39.3318C54.0914 39.4181 52.9243 39.4896 51.5474 39.4896H49.045L47.8737 38.4042C44.2562 35.0492 39.0208 35.0724 35.4863 38.4589ZM61.3432 13.6172L61.3432 39.2793L56.3591 39.2793L56.3591 13.6172H61.3432ZM68.8193 13.6172V39.2793H63.8352L63.8352 13.6172H68.8193ZM42.9769 29.6265C41.8763 30.1335 40.0965 30.1314 39.0187 29.6244C37.3865 28.8567 36.0075 26.8289 36.0075 25.1988C36.0075 22.5127 38.3438 20.1358 40.9771 20.14C44.2333 20.1442 46.4741 23.3393 45.5603 26.6733C45.28 27.6914 44.0007 29.1554 42.9769 29.6265ZM95.1974 34.3887C98.0591 35.8696 101.324 33.4969 100.942 30.2176C100.686 28.0321 99.4712 26.831 97.3779 26.6964C95.6356 26.5849 94.4041 27.1276 93.5983 28.3603C93.0916 29.1385 93.0127 29.4646 93.0127 30.7792C93.0127 32.157 93.0709 32.3736 93.6482 33.1077C93.9971 33.5516 94.6948 34.1279 95.1974 34.3887ZM112.222 28.6884C112.222 28.9156 112.924 28.9724 115.752 28.9724C118.209 28.9724 119.283 28.9008 119.283 28.7389C119.283 28.6085 119.079 28.1352 118.83 27.6872C117.962 26.1243 115.852 25.5963 114.085 26.5008C113.194 26.9573 112.222 28.0973 112.222 28.6884ZM75.4647 28.6884C75.4647 28.9156 76.1707 28.9724 78.995 28.9724C82.8909 28.9724 82.9034 28.9682 82.0582 27.7082C81.0177 26.16 79.3917 25.6573 77.6265 26.3388C76.6941 26.7006 75.4647 28.0363 75.4647 28.6884Z" fill="#021235"/>
<path d="M143.27 39.0807C141.649 39.6487 138.544 39.8022 136.804 39.3983C134.077 38.7673 131.396 36.8616 130.378 34.8276L129.87 33.8095L132.083 32.7052C133.795 31.8512 134.32 31.6682 134.401 31.9017C134.615 32.5222 136.241 34.0998 137.04 34.4595C139.053 35.366 141.266 35.1452 142.479 33.9168C143.007 33.3825 143.167 33.0417 143.167 32.4486C143.167 30.9025 142.67 30.5534 138.338 29.0515C135.211 27.9661 134.708 27.7284 133.3 26.6641C131.807 25.5366 131.074 24.081 130.956 22.0112C130.839 19.9625 131.253 18.631 132.424 17.2827C134.372 15.0425 136.617 14.1486 139.923 14.2958C143.36 14.4494 145.544 15.6041 147.144 18.1072C147.197 18.1935 147.251 18.2755 147.299 18.3512C147.613 18.8329 147.796 19.1169 147.754 19.3588C147.686 19.7416 147.06 20.0235 145.497 20.827C143.939 21.6263 143.748 21.6789 143.567 21.3571C143.077 20.4905 142.184 19.6259 141.41 19.2705C140.369 18.793 138.199 18.7467 137.36 19.1863C135.965 19.9183 135.493 21.4517 136.332 22.5329C136.903 23.2691 137.4 23.511 140.407 24.5249C146.008 26.4159 147.964 28.1112 148.296 31.359C148.641 34.7581 146.585 37.9196 143.27 39.0807ZM203.247 39.3857C199.115 40.4753 194.667 38.4181 192.783 34.5436C192.125 33.1911 192.073 32.9345 192.073 31.0792C192.073 28.6581 192.332 27.7179 193.479 25.9889C194.457 24.5144 195.931 23.3575 197.763 22.6234C198.708 22.2447 199.356 22.1543 201.21 22.1459C203.36 22.1353 203.578 22.1753 204.898 22.8085C206.763 23.7024 208.412 25.3074 209.262 27.0532C209.845 28.2543 209.943 28.6939 210.005 30.4061C210.065 32.0426 209.999 32.5958 209.612 33.6707C208.535 36.6828 206.468 38.5359 203.247 39.3857ZM160.237 39.4636C157.855 39.9747 155.157 39.5098 153.043 38.2204C147.052 34.5751 147.887 25.5661 154.485 22.6528C155.951 22.007 158.669 21.8577 160.312 22.3352C163.898 23.3806 166.01 26.3906 166.01 30.4629V32.1267L159.988 32.1267C156.391 32.1267 153.965 32.2067 153.965 32.3223C153.965 32.4317 154.065 32.7872 154.188 33.1111C155.16 35.711 159.012 36.3042 161.174 34.186L161.838 33.5339L163.51 34.6446C164.428 35.2567 165.18 35.8204 165.18 35.8982C165.18 36.138 164.158 37.4674 163.668 37.867C162.856 38.5275 161.369 39.2196 160.237 39.4636ZM172.28 34.0724L172.213 39.2785H167.464V22.4509H172.24V24.3881L172.969 23.7382C173.933 22.8821 174.602 22.5518 175.968 22.2595C177.96 21.8325 180.213 22.4782 181.309 23.7887C181.612 24.1526 182.103 24.9708 182.397 25.606C182.933 26.7587 182.935 26.7903 183.002 33.0207L183.066 39.2785H178.294L178.227 33.9672C178.163 28.9042 178.138 28.6203 177.696 27.903C177.145 27.0048 176.473 26.6578 175.293 26.6578C174.217 26.6599 173.216 27.2488 172.718 28.1743C172.392 28.7759 172.336 29.5374 172.28 34.0724ZM32.9608 20.8628C32.7676 21.2729 32.5101 21.6032 32.3876 21.5948C32.2671 21.5863 31.5611 21.1446 30.8176 20.6125C30.0742 20.0782 28.5478 18.9865 27.4243 18.1851C26.3008 17.3816 25.4597 16.6538 25.5553 16.5654C25.6508 16.4771 26.9446 15.8776 28.4294 15.2318C29.9142 14.5882 34.348 12.6383 38.2812 10.8987C42.2145 9.15918 45.4583 7.76249 45.4874 7.79194C45.5351 7.84032 44.5092 16.4014 44.4449 16.4918C44.4303 16.5107 43.9091 16.3929 43.284 16.2289C40.8771 15.5957 38.3269 15.9849 36.3312 17.2869C35.0727 18.1072 33.4467 19.8321 32.9608 20.8628ZM216.306 34.9138L216.231 39.2785H211.49V22.4509H216.266V24.8025L217.161 23.8707C218.181 22.8085 219.545 22.2405 221.08 22.2405H222.081V27.0175L220.644 27.1395C218.511 27.3204 217.506 27.985 216.75 29.7099C216.447 30.4019 216.368 31.3148 216.306 34.9138ZM190.411 22.556L190.519 39.2785H185.531V22.4382L190.411 22.556ZM199.21 34.6488C200.664 35.427 203.027 35.0526 204.041 33.8852C205.465 32.2403 205.418 29.3901 203.937 27.741C202.828 26.5063 200.708 26.2055 199.082 27.049C196.224 28.534 196.301 33.0922 199.21 34.6488ZM25.1545 19.647C24.7848 19.0496 24.3612 18.4417 24.0144 18.0484L23.0113 16.9146L22.0498 17.2848C20.9409 17.716 20.727 17.6403 20.5338 16.7547C20.43 16.2751 20.484 16.0438 20.7498 15.8481C20.9512 15.6988 20.9803 15.6105 20.7 15.459L21.3105 15.7093L24.4546 14.3274C26.1845 13.568 28.581 12.5205 29.7793 12.0009C30.9775 11.4814 32.6617 10.7431 33.5173 10.3581C37.9178 8.3809 47.2692 4.34018 47.3045 4.39907C47.5952 4.86604 47.8299 5.72214 47.7011 5.84625C47.6097 5.93249 42.067 8.43559 35.3863 11.4078C28.7056 14.3799 23.2024 16.8473 23.1608 16.8872C23.1193 16.9293 23.5201 17.4636 24.0497 18.0757C24.384 18.4627 24.7952 19.058 25.1545 19.647ZM190.044 18.6079C189.412 19.2494 189.13 19.3756 188.193 19.4471C187.346 19.5102 186.935 19.4324 186.424 19.1064C183.793 17.432 184.906 13.5365 188.017 13.5365C189.865 13.5365 191.012 14.8196 190.872 16.7337C190.802 17.6824 190.677 17.9684 190.044 18.6079ZM154.173 28.7507C154.173 28.8958 155.378 28.9716 157.703 28.9716C160.532 28.9716 161.234 28.9148 161.234 28.6876C161.234 28.2059 160.328 27.009 159.568 26.4874C158.538 25.7785 156.628 25.8942 155.548 26.7293C154.84 27.2762 154.173 28.2564 154.173 28.7507Z" fill="#4E43F7"/>
<path d="M52.5932 19.5785C52.5808 20.2916 52.5102 21.133 52.4375 21.4506L52.3066 22.0269L51.8726 21.3454C51.6338 20.971 51.2911 20.4178 51.1084 20.1149C50.4418 19.0085 50.1801 18.876 48.6579 18.876C47.8667 18.876 47.2188 18.7981 47.2188 18.7035C47.2188 18.6088 47.8023 18.205 48.5167 17.8053L49.8146 17.0796L49.9288 15.4621C50.0306 14.017 50.1967 13.3755 50.4044 13.6342C50.4418 13.6826 50.8301 14.3157 51.2662 15.0414C52.1218 16.4654 52.2402 16.5285 54.1757 16.6127L55.4217 16.6674L54.0199 17.4751L52.6181 18.2807L52.5932 19.5785Z" fill="#4E43F7"/>
</svg>
