<svg width="400" height="391" viewBox="0 0 400 391" fill="none" xmlns="http://www.w3.org/2000/svg">
<path d="M164.547 386.976L161.139 390.991H130.723C103.542 390.991 100.306 390.918 100.306 390.286C100.306 389.34 104.669 380.384 107.605 375.306C112.608 366.649 119.361 357.211 125.378 350.455C127.087 348.541 128.482 346.823 128.482 346.641C128.482 346.459 125.669 343.422 122.234 339.894C97.5707 314.562 82.8375 282.774 78.911 246.416C78.1112 239.015 78.2248 222.139 79.1292 214.364C80.8061 199.925 83.3737 189.596 88.9316 174.925C89.4724 173.488 90.1177 172.311 90.3586 172.311C90.5994 172.311 92.5808 173.556 94.7576 175.079C96.9344 176.602 106.896 183.531 116.894 190.473C130.45 199.889 135.058 203.317 135.017 203.958C134.99 204.431 134.522 206.758 133.986 209.136C129.995 226.717 131.054 245.521 137.103 264.602C138.757 269.803 144.247 281.228 147.578 286.388C157.912 302.382 172.441 315.339 189.151 323.459C203.793 330.579 214.904 333.238 231.446 333.588C242.321 333.82 247.261 333.352 256.636 331.192C297.273 321.85 328.766 287.07 334.547 245.152C334.938 242.329 335.256 238.901 335.256 237.537V235.05H388.953L388.658 239.71C386.881 267.916 378.465 293.648 363.5 316.658C359.746 322.427 353.425 330.774 349.844 334.684C348.317 336.348 347.071 337.857 347.071 338.039C347.071 338.221 349.68 341.063 352.866 344.35C360.978 352.715 367.731 361.285 373.861 370.987C376.883 375.765 383.882 389.218 383.882 390.241C383.882 390.932 381.464 390.991 353.465 390.991H323.054L318.85 386.185C309.534 375.547 298.546 367.191 285.971 361.189C271.46 354.265 258.077 351.287 241.64 351.324C224.811 351.365 210.619 354.797 195.627 362.453C183.311 368.745 173.332 376.62 164.547 386.976ZM242.394 285.747C237.436 286.552 229.556 286.556 224.811 285.756C213.046 283.769 202.18 277.945 193.636 269.044C183.716 258.701 178.471 245.616 178.471 231.186C178.471 204.653 197.086 182.181 223.339 177.016C229.056 175.889 239.117 175.984 244.821 177.216C266.902 181.985 283.581 199.02 287.761 221.084C288.684 225.93 288.661 236.342 287.721 241.356C285.321 254.172 277.823 266.579 267.77 274.358C259.586 280.696 251.692 284.238 242.394 285.747Z" fill="#1C78FF"/>
<path d="M138.948 192.716C138.784 193.334 138.457 193.898 138.221 193.962C137.984 194.025 136.562 193.207 135.062 192.143C131.209 189.406 100.033 167.847 83.6915 156.622C80.0514 154.122 75.7659 151.158 74.1663 150.03C72.5666 148.903 67.8722 145.647 63.7367 142.788C59.6012 139.933 56.2156 137.455 56.2156 137.291C56.2156 137.259 56.2065 137.237 56.2065 137.209C56.1838 136.941 56.9382 136.614 77.1929 127.835C78.3199 127.348 79.506 126.834 80.7558 126.293C112.653 112.463 111.854 112.814 123.247 107.858C128.995 105.357 140.552 100.347 148.923 96.7194C192.336 77.9156 211.568 69.573 246.529 54.3791C267.593 45.2227 285.03 37.7348 285.271 37.7348C285.316 37.7348 285.362 37.7257 285.403 37.7212C285.457 37.7076 285.507 37.703 285.543 37.7166C285.771 37.8076 285.643 38.7896 284.73 45.7819C284.621 46.6184 284.498 47.5413 284.366 48.5597C283.108 58.1935 281.44 71.187 278.668 92.9732C278.031 97.9742 276.786 107.694 275.905 114.568C275.018 121.443 274.078 129.012 273.81 131.39C273.541 133.768 273.182 135.868 273.01 136.059C272.837 136.255 270.665 135.668 268.184 134.763C256.754 130.59 248.351 129.103 235.041 128.899C212.75 128.558 195.731 133.618 178.008 145.852C164.983 154.84 152.672 167.638 145.601 179.531C143.051 183.819 139.384 191.088 138.948 192.716ZM15.8561 146.561C11.5252 148.466 7.88965 150.03 7.77603 150.03C7.66242 150.03 7.38975 149.571 7.17162 149.007C6.48995 147.257 0.232203 132.545 0.00952372 132.176C-0.108633 131.981 0.886608 131.335 2.21814 130.735C5.82645 129.112 60.2102 105.571 80.5285 96.8376C96.7523 89.868 139.807 71.2506 155.74 64.3174C159.366 62.7444 177.362 54.9701 195.731 47.0458C214.1 39.1215 242.834 26.7008 259.581 19.4448C297.464 3.02333 304.548 0 305.126 0C305.703 0 312.392 16.1987 311.983 16.6079C311.783 16.8034 303.358 20.5223 271.851 34.3069C263.103 38.1349 251.446 43.2541 245.947 45.6819C240.449 48.1142 224.802 54.9746 211.182 60.9349C197.558 66.8907 174.449 77.0109 159.83 83.4303C145.21 89.8453 119.543 101.098 102.796 108.435C57.429 128.308 24.6951 142.66 15.8561 146.561Z" fill="#1C78FF"/>
<path d="M363.578 194.701C363.428 195.888 363.174 196.86 363.019 196.856C362.865 196.851 362.006 195.678 361.111 194.242C360.216 192.805 355.353 185.067 350.3 177.038L341.111 162.449L334.653 162.154C331.104 161.99 324.296 161.858 319.52 161.853C310.108 161.853 302.523 161.449 302.523 160.949C302.523 160.776 303.496 160.103 304.682 159.458C310.744 156.148 333.785 142.727 334.639 142.004C335.489 141.286 335.666 140.531 335.907 136.621C336.062 134.121 336.28 130.747 336.398 129.12C336.512 127.492 336.807 122.482 337.048 117.981C337.793 104.237 338.093 100.478 338.443 100.478C338.725 100.478 346.487 112.625 357.657 130.538L360.384 134.912L364.287 135.194C366.432 135.353 373.349 135.494 379.657 135.512C392.268 135.544 399.412 135.88 399.075 136.426C398.88 136.739 386.619 143.991 381.597 146.755C376.398 149.624 366.342 155.68 366.042 156.13C365.855 156.402 365.701 158.057 365.696 159.808C365.687 161.558 365.487 165.341 365.246 168.218C365.005 171.096 364.596 177.743 364.333 182.994C364.074 188.245 363.733 193.514 363.578 194.701Z" fill="#1C78FF"/>
</svg>
