<svg width="195" height="259" viewBox="0 0 195 259" fill="none" xmlns="http://www.w3.org/2000/svg">
<g clip-path="url(#clip0_11187_5406)">
<mask id="path-1-inside-1_11187_5406" fill="white">
<path d="M195.32 13.2059C195.32 13.3491 195.32 13.4922 195.201 13.7097C194.883 14.083 194.579 14.3571 194.5 14.6851C194.001 16.7674 192.702 18.5767 193.071 20.9927C193.279 22.3552 192.094 23.8761 191.817 25.3771C191.275 28.3181 190.687 31.2881 190.601 34.2601C190.556 35.8207 190.465 37.2285 189.955 38.7213C188.611 42.6585 187.473 46.6657 186.215 50.6329C186.026 51.2293 185.682 51.7961 185.321 52.3158C183.069 55.5616 180.7 58.7308 178.546 62.0396C175.955 66.0196 173.063 69.8418 171.447 74.3849C170.955 75.7676 170.411 75.8785 169.294 74.848C168.327 75.4987 167.363 76.1476 166.459 76.7564C166.114 76.0286 165.714 75.1832 165.35 74.4126C165.844 74.1735 166.339 73.934 166.834 73.6945C166.78 73.5999 166.726 73.5053 166.671 73.4107C165.997 73.5316 165.324 73.6524 164.595 73.6769C164.312 73.0518 164.083 72.5231 163.81 71.8956C163.188 72.3646 162.588 72.8164 161.989 73.2682C162.034 73.4248 162.078 73.5815 162.123 73.7381C162.976 73.7381 163.829 73.7381 164.669 73.8598C164.423 74.5668 164.189 75.1521 163.956 75.7333C165.648 76.2111 165.905 77.781 164.457 79.746C165.356 79.6722 166.254 79.5984 167.246 79.5168C167.246 79.8625 167.246 80.2848 167.246 80.4796C167.83 80.4325 168.601 80.2229 168.693 80.389C169.033 81.0009 169.403 81.7774 169.301 82.4195C168.984 84.4217 168.353 86.3746 168.039 88.3772C167.727 90.3667 167.388 92.4161 167.561 94.3957C167.689 95.8709 168.664 97.2598 169.174 98.7179C169.856 100.669 170.546 102.625 171.051 104.625C171.375 105.906 171.422 107.266 171.506 108.597C171.781 112.952 172.016 117.31 172.275 121.839C169.991 121.839 168.173 121.839 166.414 121.839C166.496 122.322 166.579 122.817 166.68 123.414C166.015 123.258 165.539 123.146 165.25 123.078C165.25 123.624 165.25 124.088 165.25 124.71C166.579 125.398 168.083 126.177 169.592 126.958C169.331 128.785 169.669 129.243 172.019 129.832C172.019 132.874 171.888 136.013 172.051 139.136C172.279 143.516 172.687 147.889 173.112 152.256C173.204 153.203 173.538 154.183 172.434 154.589C171.313 155 170.231 155.715 168.857 154.754C167.575 153.856 166.004 152.909 164.531 152.86C162.651 152.798 161.506 152.416 161.002 150.566C160.969 150.448 160.449 150.463 159.791 150.357C160.276 151.009 160.509 151.323 160.78 151.687C159.818 152.214 158.902 152.718 157.871 153.283C158.836 153.511 159.68 153.711 160.524 153.911C160.24 154.208 159.998 154.264 159.768 154.231C157.811 153.952 155.824 153.79 153.908 153.333C150.938 152.625 148.589 153.946 146.267 155.387C145.38 155.938 143.934 156.292 144.654 157.947C144.7 158.053 144.317 158.318 144.177 158.536C143.622 159.393 142.82 160.203 142.612 161.141C142.38 162.184 142.563 163.379 142.821 164.447C142.986 165.129 143.613 165.7 143.92 166.154C142.108 168.067 140.462 169.743 138.895 171.491C138.3 172.154 137.615 172.924 137.446 173.743C136.954 176.121 135.273 177.766 133.707 179.207C131.132 181.577 130.023 184.748 128.308 187.565C127.399 189.058 127.292 191.044 126.868 192.819C126.802 193.098 126.902 193.482 127.056 193.739C129.047 197.061 131.495 199.972 135.23 201.359C136.694 201.903 138.375 201.867 140.354 202.152C137.545 202.844 135.219 203.695 132.595 203.025C130.804 202.569 128.866 202.409 127.166 203.638C126.983 203.77 126.637 203.654 126.386 203.723C123.787 204.438 121.123 204.997 118.638 205.997C117.887 206.299 117.348 206.569 116.531 206.451C115.176 206.257 114.715 206.85 114.936 208.08C113.912 208.473 112.923 208.857 111.929 209.229C111.652 209.333 111.352 209.497 111.079 209.47C107.121 209.079 103.541 209.734 100.652 212.79C99.7834 213.709 98.6711 214.454 97.5577 215.078C95.0287 216.496 92.9736 218.309 92.3648 221.244C92.0203 222.904 92.0165 224.635 91.8182 226.779C92.6733 226.182 93.0246 225.936 93.3759 225.691C93.5189 225.755 93.6618 225.819 93.8048 225.883C93.6521 226.435 93.669 227.3 93.3188 227.489C91.208 228.632 90.4198 230.504 90.3526 232.694C90.2968 234.515 91.013 236.366 90.0751 238.146C90.053 238.188 90.0541 238.261 90.0757 238.304C90.7957 239.737 89.684 240.426 88.9042 241.287C87.8196 242.486 86.7181 243.708 87.2097 245.509C85.763 246.12 84.174 246.443 83.0427 247.341C80.6829 249.213 78.2193 250.768 75.3283 251.658C74.8558 251.803 74.1951 252.249 74.1295 252.641C73.8633 254.232 72.501 254.644 71.4112 255.014C69.7441 255.58 67.905 255.619 66.1804 256.047C63.8761 256.619 63.5663 257.105 63.5985 259.32C62.0845 259.32 60.5706 259.32 58.9184 259.195C56.537 258.497 54.2931 257.926 52.0516 257.347C51.8051 257.283 51.5357 257.215 51.339 257.066C49.6665 255.806 47.998 254.54 46.3489 253.25C44.6406 251.913 42.9554 250.547 40.9127 248.917C41.8742 248.456 42.6132 248.158 43.2863 247.751C43.5394 247.598 43.8192 247.161 43.7734 246.91C43.6647 246.314 43.3686 245.753 43.1483 245.178C43.3401 245.231 43.532 245.285 43.7239 245.338C44.657 244.203 45.5901 243.068 46.5023 241.958C46.2932 241.39 45.9465 240.76 45.8781 240.101C45.8522 239.852 46.6828 239.241 46.7595 239.297C47.5078 239.837 48.0753 239.674 48.5118 238.962C48.9738 238.209 49.5534 237.477 48.8308 236.508C48.0754 235.495 47.3639 234.438 46.7459 233.337C45.8383 231.72 45.0308 230.047 44.4274 228.877C45.733 227.19 46.7926 225.828 47.8445 224.46C48.567 223.52 48.5812 222.672 47.6267 221.823C46.8213 221.106 46.004 220.355 45.3975 219.477C44.724 218.503 44.3504 217.326 43.7232 216.314C43.0508 215.228 43.3068 214.306 44.4959 213.818C44.9334 213.638 45.3936 213.349 45.6722 212.981C46.3789 212.047 46.9034 210.968 47.6598 210.082C48.5287 209.064 49.2622 208.144 48.0635 207.026C48.5234 206.52 49.0894 206.177 49.1884 205.732C49.4116 204.727 49.2573 203.631 49.5327 202.648C49.7862 201.744 50.237 200.773 50.8952 200.133C51.8372 199.216 52.6497 198.454 52.5608 196.953C52.513 196.146 53.0238 194.623 53.3897 194.59C55.2822 194.417 54.7398 192.867 55.0302 192.39C54.0476 191.019 53.2315 189.88 52.4585 188.802C52.0065 188.518 51.4962 188.198 50.8303 187.78C49.8916 188.662 48.6925 189.209 47.2594 188.422C46.2346 187.858 45.1935 187.324 44.1344 186.764C45.2441 183.868 46.3952 180.864 47.3923 178.262C47.0438 176.613 46.3527 175.197 46.5848 173.951C46.8478 172.539 47.9378 171.28 48.8126 169.693C48.776 169.588 48.3802 169.021 48.4375 168.504C48.5904 167.126 47.7558 166.379 46.9488 165.509C46.4486 164.97 46.1686 164.227 45.7897 163.576C46.5217 163.234 47.2616 162.907 47.9822 162.542C48.3337 162.364 48.8631 162.175 48.9438 161.888C49.2971 160.631 49.5156 159.336 49.7971 157.987C49.3773 157.839 48.9356 157.683 48.6875 157.596C48.0243 155.745 47.4192 154.055 46.7313 152.135C45.7548 151.827 44.5962 151.744 43.463 152.764C42.858 153.309 41.9322 153.48 41.2214 153.931C40.4066 154.447 39.648 155.06 38.9076 155.681C38.5073 156.017 38.2571 156.549 37.8328 156.835C36.5143 157.726 35.274 158.376 33.4587 157.634C32.65 157.303 31.8857 157.275 31.3549 156.424C30.9682 155.805 30.3603 154.917 29.8066 154.883C28.1363 154.783 28.3086 153.89 28.5698 152.805C28.7163 152.197 29.1889 151.324 28.9469 151.019C27.141 148.743 28.5101 146.392 28.5501 144.067C28.5744 142.655 29.2657 141.06 27.8298 139.828C27.5774 139.612 27.6118 139.062 27.4561 138.434C28.2404 138.396 28.8683 138.282 29.4746 138.353C30.853 138.514 30.8691 137.841 30.6144 136.799C30.4739 136.224 30.4146 135.549 30.5806 134.998C30.869 134.04 31.4445 133.17 31.7432 132.214C32.0412 131.26 31.9429 130.427 30.6276 130.217C30.133 130.138 29.3373 129.692 29.3069 129.356C29.1841 128.001 28.3128 127.41 27.2461 127.038C25.3959 126.394 23.4943 125.897 21.6419 125.258C20.7756 124.96 19.9195 124.569 20.6022 123.302C21.1487 122.288 21.3878 121.093 22.0176 120.147C22.3515 119.645 23.2015 119.41 23.8663 119.229C24.3188 119.105 24.854 119.284 24.933 119.291C24.6923 117.847 24.4594 116.45 24.2127 114.97C23.8186 114.822 23.2756 114.712 22.8398 114.434C22.1009 113.963 21.6372 113.309 22.428 112.508C24.0172 110.899 24.0014 110.736 21.9392 109.655C21.4559 110.066 21.0014 110.519 20.4791 110.873C19.9366 111.24 19.3059 111.812 18.753 111.771C16.1201 111.575 13.499 111.116 10.8927 111.961C10.1877 110.154 10.4688 109.125 12.4997 108.461C14.9126 107.672 14.8355 105.819 15.1242 104.374C13.9225 103.84 12.9547 103.456 12.0312 102.986C11.0478 102.485 10.0877 101.932 9.15331 101.345C8.55457 100.969 8.08135 100.325 7.44491 100.092C6.25725 99.6566 4.98748 99.4485 3.75996 99.1162C2.88639 98.8797 2.02606 98.5945 1.14388 98.3262C0.946861 97.9228 0.633588 97.2814 0.320314 96.64C0.320313 96.3984 0.320312 96.1568 0.399533 95.8763C0.558919 95.6882 0.639084 95.539 0.719249 95.3898C0.58627 95.377 0.453291 95.3642 0.320313 95.3514C0.320313 94.7991 0.320312 94.2469 0.434011 93.5832C1.63982 92.7815 2.73963 91.8324 3.71675 93.6069C4.96345 92.4897 7.26408 93.1683 7.83759 91.037C7.86714 90.9272 8.33483 90.8816 8.5936 90.8957C9.61789 90.9518 10.185 90.6497 9.78912 89.7483C10.5983 89.2274 11.3143 88.8214 11.9696 88.3341C13.6349 87.0957 14.9795 87.5892 15.4431 89.6428C15.5021 89.9042 15.5447 90.1692 15.6033 90.4307C15.8024 91.3187 16.1594 91.7537 17.2664 91.6348C19.4514 91.3999 21.6628 91.3507 23.8637 91.3423C25.5536 91.3359 27.2442 91.5097 28.5827 91.5838C28.8482 90.5773 28.9687 89.6741 29.3223 88.8734C30.0391 87.2507 30.8451 85.6631 31.7035 84.1102C31.8817 83.7879 32.4461 83.5121 32.8355 83.5081C33.5605 83.5007 34.2878 83.7089 35.065 83.8357C36.5505 80.7029 38.0854 83.7424 39.6246 83.7583C39.5999 85.1618 40.0076 86.1167 41.5674 86.2339C41.6712 85.6141 41.7667 85.0434 41.8658 84.4509C44.17 83.8903 46.4331 83.3398 48.6962 82.7892C48.7232 82.6188 48.7502 82.4483 48.7772 82.2779C49.846 82.9168 50.8944 83.5947 51.9967 84.1696C52.3097 84.3328 52.9352 84.3655 53.1524 84.168C54.3766 83.0551 55.6281 83.1024 56.9891 83.9809C58.0394 82.6283 58.7458 81.2589 58.6229 79.5493C58.5859 79.0345 58.7112 78.5082 58.7621 77.9872C60.3059 78.146 59.7079 76.572 59.9907 76.3176C62.7603 75.9541 65.1299 75.6907 67.4771 75.2952C67.9505 75.2155 68.4595 74.7128 68.7447 74.2717C69.6423 72.8833 70.3683 71.3814 71.3048 70.0222C71.8965 69.1634 72.7452 68.4809 73.2887 67.9165C72.7115 66.9367 72.3598 66.3144 71.9825 65.7081C71.7319 65.3055 71.4985 64.6454 71.1649 64.5815C69.1465 64.1953 67.104 63.9288 65.0646 63.6591C63.1292 63.4032 61.0758 64.4836 59.1835 63.2236C59.2471 62.9924 59.3007 62.8451 59.3275 62.693C59.6223 61.0207 60.0987 60.5551 61.5093 59.5952C62.533 58.8987 63.313 57.8555 64.2517 57.023C66.2457 55.2548 65.8872 52.8597 66.2361 50.6612C65.4889 50.819 64.9046 50.9424 64.3203 51.0658C64.2873 50.9541 64.2542 50.8423 64.2212 50.7306C64.5532 50.3556 64.8851 49.9806 65.1783 49.6495C63.8964 48.6948 63.6547 47.5216 63.9219 46.1608C64.157 44.9638 64.2148 43.6969 64.6715 42.5929C64.9098 42.0168 65.791 41.5271 66.4704 41.3625C67.1191 41.2053 67.8844 41.5112 68.5954 41.632C69.006 41.7018 69.4178 41.8969 69.8148 41.8642C70.0479 41.8449 70.2751 41.2949 70.4674 41.3165C71.7211 41.4572 71.9608 40.2192 72.5057 39.6388C73.1614 38.9403 72.993 37.5134 73.5969 36.7147C74.4205 35.6258 74.6267 34.6626 73.8174 33.2765C76.1642 32.6427 78.3135 32.0623 80.5728 31.4521C80.7766 32.0022 80.9569 32.4886 81.0237 32.9216C79.867 33.7318 79.867 33.7318 80.9478 34.36C81.003 33.8672 81.0546 33.407 81.2067 32.891C82.1437 33.6246 82.9803 34.4139 83.8476 35.2321C84.4147 32.8754 85.6127 32.4675 87.4114 33.9387C87.6179 34.1077 87.837 34.264 88.0276 34.4495C89.3756 35.7612 90.6891 37.0034 92.8357 36.9198C94.0066 36.8742 95.1394 37.5471 94.9197 38.9647C94.8187 39.6168 94.0535 40.1664 93.4011 41.0044C93.9803 40.8477 94.4686 40.8519 94.7531 40.6137C95.6924 39.8274 96.4365 40.0633 97.2252 40.836C99.0567 42.6302 100.866 44.1249 103.855 43.7914C105.471 43.6111 106.131 43.4982 105.891 42.4302C106.516 41.55 107.05 41.0891 107.187 40.5315C107.348 39.8701 107.168 39.1254 107.118 37.9988C107.977 38.9645 108.679 39.7526 109.483 40.6551C109.611 40.4491 109.954 40.1519 109.916 39.9155C109.696 38.5438 110.16 37.5769 111.22 36.6574C111.749 36.1988 111.875 35.2436 112.11 34.4902C112.548 33.0842 112.636 31.4659 113.413 30.2957C114.371 28.8528 114.077 27.7795 113.236 26.607C114.211 25.8298 114.739 24.4149 116.334 25.0923C116.46 25.146 116.909 24.7236 117.031 24.4453C117.232 23.9844 117.288 23.4607 117.44 22.8157C119.126 23.4447 120.636 23.6348 121.817 22.1455C121.902 22.0389 122.107 21.9817 122.257 21.9799C123.394 21.9665 124.531 21.9726 125.899 21.9726C125.899 22.5424 125.899 23.4568 125.899 24.3712C126.785 22.6104 129.446 21.7135 131 22.2091C133.056 22.8648 134.259 25.7112 137.007 24.5426C137.18 24.4692 137.491 24.7256 137.74 24.8237C139.075 25.3508 139.343 25.0845 139.598 23.6503C139.743 22.833 140.277 22.0668 140.717 21.3247C141.064 20.7374 141.534 20.2221 141.949 19.6747C143.568 18.0326 144.619 19.5215 145.691 20.4805C146.332 20.1229 146.965 19.7693 147.627 19.4004C147.888 17.8785 148.742 16.9071 150.437 16.7087C150.733 16.6741 151.235 16.2392 151.215 16.0285C151.107 14.8583 150.867 13.7004 150.672 12.5382C150.799 12.508 150.926 12.4779 151.054 12.4477C150.432 12.104 149.811 11.7604 149.115 11.3756C151.458 9.4006 153.897 10.4902 156.201 10.7555C156.671 10.8095 156.97 12.0743 157.409 12.7409C157.69 13.167 158.082 13.5195 158.213 13.6666C159.719 13.2537 160.917 12.7926 162.156 12.6184C163.762 12.3925 163.958 12.7226 163.38 14.4688C164.791 13.9264 164.334 15.0781 164.554 16.0458C165.533 14.41 166.065 15.4341 166.647 16.1325C167.214 15.7212 167.699 15.3693 168.232 14.9831C167.175 14.2351 166.292 13.6098 165.436 13.0039C166.129 12.3656 166.651 11.8852 167.2 11.3805C167.571 11.5847 167.98 11.8101 168.389 12.0354C169.076 11.4966 169.815 11.4458 170.461 11.175C172.186 10.4518 173.887 9.66644 175.548 8.80948C175.738 8.71143 175.556 7.99034 175.646 7.58005C175.757 7.07586 175.939 6.57847 176.158 6.1101C176.277 5.85711 176.698 5.67948 176.71 5.45296C176.831 3.26434 178.934 3.22233 180.09 2.12042C179.662 1.43039 177.804 2.02047 178.209 0.320312C179.831 0.320312 181.452 0.320312 183.179 0.441428C183.426 0.772358 183.531 1.1206 183.717 1.17001C185.15 1.5524 186.631 1.78459 188.035 2.2489C189.15 2.61777 190.682 2.9793 191.135 3.82238C191.945 5.33043 193.117 5.11612 193.94 5.22917C194.452 6.39546 194.886 7.38463 195.32 8.37379C195.32 9.77732 195.32 11.1809 195.24 12.6553C195.083 12.8748 195.006 13.0235 194.929 13.1722C195.059 13.1834 195.19 13.1947 195.32 13.2059Z"/>
</mask>
<path d="M195.32 13.2059C195.32 13.3491 195.32 13.4922 195.201 13.7097C194.883 14.083 194.579 14.3571 194.5 14.6851C194.001 16.7674 192.702 18.5767 193.071 20.9927C193.279 22.3552 192.094 23.8761 191.817 25.3771C191.275 28.3181 190.687 31.2881 190.601 34.2601C190.556 35.8207 190.465 37.2285 189.955 38.7213C188.611 42.6585 187.473 46.6657 186.215 50.6329C186.026 51.2293 185.682 51.7961 185.321 52.3158C183.069 55.5616 180.7 58.7308 178.546 62.0396C175.955 66.0196 173.063 69.8418 171.447 74.3849C170.955 75.7676 170.411 75.8785 169.294 74.848C168.327 75.4987 167.363 76.1476 166.459 76.7564C166.114 76.0286 165.714 75.1832 165.35 74.4126C165.844 74.1735 166.339 73.934 166.834 73.6945C166.78 73.5999 166.726 73.5053 166.671 73.4107C165.997 73.5316 165.324 73.6524 164.595 73.6769C164.312 73.0518 164.083 72.5231 163.81 71.8956C163.188 72.3646 162.588 72.8164 161.989 73.2682C162.034 73.4248 162.078 73.5815 162.123 73.7381C162.976 73.7381 163.829 73.7381 164.669 73.8598C164.423 74.5668 164.189 75.1521 163.956 75.7333C165.648 76.2111 165.905 77.781 164.457 79.746C165.356 79.6722 166.254 79.5984 167.246 79.5168C167.246 79.8625 167.246 80.2848 167.246 80.4796C167.83 80.4325 168.601 80.2229 168.693 80.389C169.033 81.0009 169.403 81.7774 169.301 82.4195C168.984 84.4217 168.353 86.3746 168.039 88.3772C167.727 90.3667 167.388 92.4161 167.561 94.3957C167.689 95.8709 168.664 97.2598 169.174 98.7179C169.856 100.669 170.546 102.625 171.051 104.625C171.375 105.906 171.422 107.266 171.506 108.597C171.781 112.952 172.016 117.31 172.275 121.839C169.991 121.839 168.173 121.839 166.414 121.839C166.496 122.322 166.579 122.817 166.68 123.414C166.015 123.258 165.539 123.146 165.25 123.078C165.25 123.624 165.25 124.088 165.25 124.71C166.579 125.398 168.083 126.177 169.592 126.958C169.331 128.785 169.669 129.243 172.019 129.832C172.019 132.874 171.888 136.013 172.051 139.136C172.279 143.516 172.687 147.889 173.112 152.256C173.204 153.203 173.538 154.183 172.434 154.589C171.313 155 170.231 155.715 168.857 154.754C167.575 153.856 166.004 152.909 164.531 152.86C162.651 152.798 161.506 152.416 161.002 150.566C160.969 150.448 160.449 150.463 159.791 150.357C160.276 151.009 160.509 151.323 160.78 151.687C159.818 152.214 158.902 152.718 157.871 153.283C158.836 153.511 159.68 153.711 160.524 153.911C160.24 154.208 159.998 154.264 159.768 154.231C157.811 153.952 155.824 153.79 153.908 153.333C150.938 152.625 148.589 153.946 146.267 155.387C145.38 155.938 143.934 156.292 144.654 157.947C144.7 158.053 144.317 158.318 144.177 158.536C143.622 159.393 142.82 160.203 142.612 161.141C142.38 162.184 142.563 163.379 142.821 164.447C142.986 165.129 143.613 165.7 143.92 166.154C142.108 168.067 140.462 169.743 138.895 171.491C138.3 172.154 137.615 172.924 137.446 173.743C136.954 176.121 135.273 177.766 133.707 179.207C131.132 181.577 130.023 184.748 128.308 187.565C127.399 189.058 127.292 191.044 126.868 192.819C126.802 193.098 126.902 193.482 127.056 193.739C129.047 197.061 131.495 199.972 135.23 201.359C136.694 201.903 138.375 201.867 140.354 202.152C137.545 202.844 135.219 203.695 132.595 203.025C130.804 202.569 128.866 202.409 127.166 203.638C126.983 203.77 126.637 203.654 126.386 203.723C123.787 204.438 121.123 204.997 118.638 205.997C117.887 206.299 117.348 206.569 116.531 206.451C115.176 206.257 114.715 206.85 114.936 208.08C113.912 208.473 112.923 208.857 111.929 209.229C111.652 209.333 111.352 209.497 111.079 209.47C107.121 209.079 103.541 209.734 100.652 212.79C99.7834 213.709 98.6711 214.454 97.5577 215.078C95.0287 216.496 92.9736 218.309 92.3648 221.244C92.0203 222.904 92.0165 224.635 91.8182 226.779C92.6733 226.182 93.0246 225.936 93.3759 225.691C93.5189 225.755 93.6618 225.819 93.8048 225.883C93.6521 226.435 93.669 227.3 93.3188 227.489C91.208 228.632 90.4198 230.504 90.3526 232.694C90.2968 234.515 91.013 236.366 90.0751 238.146C90.053 238.188 90.0541 238.261 90.0757 238.304C90.7957 239.737 89.684 240.426 88.9042 241.287C87.8196 242.486 86.7181 243.708 87.2097 245.509C85.763 246.12 84.174 246.443 83.0427 247.341C80.6829 249.213 78.2193 250.768 75.3283 251.658C74.8558 251.803 74.1951 252.249 74.1295 252.641C73.8633 254.232 72.501 254.644 71.4112 255.014C69.7441 255.58 67.905 255.619 66.1804 256.047C63.8761 256.619 63.5663 257.105 63.5985 259.32C62.0845 259.32 60.5706 259.32 58.9184 259.195C56.537 258.497 54.2931 257.926 52.0516 257.347C51.8051 257.283 51.5357 257.215 51.339 257.066C49.6665 255.806 47.998 254.54 46.3489 253.25C44.6406 251.913 42.9554 250.547 40.9127 248.917C41.8742 248.456 42.6132 248.158 43.2863 247.751C43.5394 247.598 43.8192 247.161 43.7734 246.91C43.6647 246.314 43.3686 245.753 43.1483 245.178C43.3401 245.231 43.532 245.285 43.7239 245.338C44.657 244.203 45.5901 243.068 46.5023 241.958C46.2932 241.39 45.9465 240.76 45.8781 240.101C45.8522 239.852 46.6828 239.241 46.7595 239.297C47.5078 239.837 48.0753 239.674 48.5118 238.962C48.9738 238.209 49.5534 237.477 48.8308 236.508C48.0754 235.495 47.3639 234.438 46.7459 233.337C45.8383 231.72 45.0308 230.047 44.4274 228.877C45.733 227.19 46.7926 225.828 47.8445 224.46C48.567 223.52 48.5812 222.672 47.6267 221.823C46.8213 221.106 46.004 220.355 45.3975 219.477C44.724 218.503 44.3504 217.326 43.7232 216.314C43.0508 215.228 43.3068 214.306 44.4959 213.818C44.9334 213.638 45.3936 213.349 45.6722 212.981C46.3789 212.047 46.9034 210.968 47.6598 210.082C48.5287 209.064 49.2622 208.144 48.0635 207.026C48.5234 206.52 49.0894 206.177 49.1884 205.732C49.4116 204.727 49.2573 203.631 49.5327 202.648C49.7862 201.744 50.237 200.773 50.8952 200.133C51.8372 199.216 52.6497 198.454 52.5608 196.953C52.513 196.146 53.0238 194.623 53.3897 194.59C55.2822 194.417 54.7398 192.867 55.0302 192.39C54.0476 191.019 53.2315 189.88 52.4585 188.802C52.0065 188.518 51.4962 188.198 50.8303 187.78C49.8916 188.662 48.6925 189.209 47.2594 188.422C46.2346 187.858 45.1935 187.324 44.1344 186.764C45.2441 183.868 46.3952 180.864 47.3923 178.262C47.0438 176.613 46.3527 175.197 46.5848 173.951C46.8478 172.539 47.9378 171.28 48.8126 169.693C48.776 169.588 48.3802 169.021 48.4375 168.504C48.5904 167.126 47.7558 166.379 46.9488 165.509C46.4486 164.97 46.1686 164.227 45.7897 163.576C46.5217 163.234 47.2616 162.907 47.9822 162.542C48.3337 162.364 48.8631 162.175 48.9438 161.888C49.2971 160.631 49.5156 159.336 49.7971 157.987C49.3773 157.839 48.9356 157.683 48.6875 157.596C48.0243 155.745 47.4192 154.055 46.7313 152.135C45.7548 151.827 44.5962 151.744 43.463 152.764C42.858 153.309 41.9322 153.48 41.2214 153.931C40.4066 154.447 39.648 155.06 38.9076 155.681C38.5073 156.017 38.2571 156.549 37.8328 156.835C36.5143 157.726 35.274 158.376 33.4587 157.634C32.65 157.303 31.8857 157.275 31.3549 156.424C30.9682 155.805 30.3603 154.917 29.8066 154.883C28.1363 154.783 28.3086 153.89 28.5698 152.805C28.7163 152.197 29.1889 151.324 28.9469 151.019C27.141 148.743 28.5101 146.392 28.5501 144.067C28.5744 142.655 29.2657 141.06 27.8298 139.828C27.5774 139.612 27.6118 139.062 27.4561 138.434C28.2404 138.396 28.8683 138.282 29.4746 138.353C30.853 138.514 30.8691 137.841 30.6144 136.799C30.4739 136.224 30.4146 135.549 30.5806 134.998C30.869 134.04 31.4445 133.17 31.7432 132.214C32.0412 131.26 31.9429 130.427 30.6276 130.217C30.133 130.138 29.3373 129.692 29.3069 129.356C29.1841 128.001 28.3128 127.41 27.2461 127.038C25.3959 126.394 23.4943 125.897 21.6419 125.258C20.7756 124.96 19.9195 124.569 20.6022 123.302C21.1487 122.288 21.3878 121.093 22.0176 120.147C22.3515 119.645 23.2015 119.41 23.8663 119.229C24.3188 119.105 24.854 119.284 24.933 119.291C24.6923 117.847 24.4594 116.45 24.2127 114.97C23.8186 114.822 23.2756 114.712 22.8398 114.434C22.1009 113.963 21.6372 113.309 22.428 112.508C24.0172 110.899 24.0014 110.736 21.9392 109.655C21.4559 110.066 21.0014 110.519 20.4791 110.873C19.9366 111.24 19.3059 111.812 18.753 111.771C16.1201 111.575 13.499 111.116 10.8927 111.961C10.1877 110.154 10.4688 109.125 12.4997 108.461C14.9126 107.672 14.8355 105.819 15.1242 104.374C13.9225 103.84 12.9547 103.456 12.0312 102.986C11.0478 102.485 10.0877 101.932 9.15331 101.345C8.55457 100.969 8.08135 100.325 7.44491 100.092C6.25725 99.6566 4.98748 99.4485 3.75996 99.1162C2.88639 98.8797 2.02606 98.5945 1.14388 98.3262C0.946861 97.9228 0.633588 97.2814 0.320314 96.64C0.320313 96.3984 0.320312 96.1568 0.399533 95.8763C0.558919 95.6882 0.639084 95.539 0.719249 95.3898C0.58627 95.377 0.453291 95.3642 0.320313 95.3514C0.320313 94.7991 0.320312 94.2469 0.434011 93.5832C1.63982 92.7815 2.73963 91.8324 3.71675 93.6069C4.96345 92.4897 7.26408 93.1683 7.83759 91.037C7.86714 90.9272 8.33483 90.8816 8.5936 90.8957C9.61789 90.9518 10.185 90.6497 9.78912 89.7483C10.5983 89.2274 11.3143 88.8214 11.9696 88.3341C13.6349 87.0957 14.9795 87.5892 15.4431 89.6428C15.5021 89.9042 15.5447 90.1692 15.6033 90.4307C15.8024 91.3187 16.1594 91.7537 17.2664 91.6348C19.4514 91.3999 21.6628 91.3507 23.8637 91.3423C25.5536 91.3359 27.2442 91.5097 28.5827 91.5838C28.8482 90.5773 28.9687 89.6741 29.3223 88.8734C30.0391 87.2507 30.8451 85.6631 31.7035 84.1102C31.8817 83.7879 32.4461 83.5121 32.8355 83.5081C33.5605 83.5007 34.2878 83.7089 35.065 83.8357C36.5505 80.7029 38.0854 83.7424 39.6246 83.7583C39.5999 85.1618 40.0076 86.1167 41.5674 86.2339C41.6712 85.6141 41.7667 85.0434 41.8658 84.4509C44.17 83.8903 46.4331 83.3398 48.6962 82.7892C48.7232 82.6188 48.7502 82.4483 48.7772 82.2779C49.846 82.9168 50.8944 83.5947 51.9967 84.1696C52.3097 84.3328 52.9352 84.3655 53.1524 84.168C54.3766 83.0551 55.6281 83.1024 56.9891 83.9809C58.0394 82.6283 58.7458 81.2589 58.6229 79.5493C58.5859 79.0345 58.7112 78.5082 58.7621 77.9872C60.3059 78.146 59.7079 76.572 59.9907 76.3176C62.7603 75.9541 65.1299 75.6907 67.4771 75.2952C67.9505 75.2155 68.4595 74.7128 68.7447 74.2717C69.6423 72.8833 70.3683 71.3814 71.3048 70.0222C71.8965 69.1634 72.7452 68.4809 73.2887 67.9165C72.7115 66.9367 72.3598 66.3144 71.9825 65.7081C71.7319 65.3055 71.4985 64.6454 71.1649 64.5815C69.1465 64.1953 67.104 63.9288 65.0646 63.6591C63.1292 63.4032 61.0758 64.4836 59.1835 63.2236C59.2471 62.9924 59.3007 62.8451 59.3275 62.693C59.6223 61.0207 60.0987 60.5551 61.5093 59.5952C62.533 58.8987 63.313 57.8555 64.2517 57.023C66.2457 55.2548 65.8872 52.8597 66.2361 50.6612C65.4889 50.819 64.9046 50.9424 64.3203 51.0658C64.2873 50.9541 64.2542 50.8423 64.2212 50.7306C64.5532 50.3556 64.8851 49.9806 65.1783 49.6495C63.8964 48.6948 63.6547 47.5216 63.9219 46.1608C64.157 44.9638 64.2148 43.6969 64.6715 42.5929C64.9098 42.0168 65.791 41.5271 66.4704 41.3625C67.1191 41.2053 67.8844 41.5112 68.5954 41.632C69.006 41.7018 69.4178 41.8969 69.8148 41.8642C70.0479 41.8449 70.2751 41.2949 70.4674 41.3165C71.7211 41.4572 71.9608 40.2192 72.5057 39.6388C73.1614 38.9403 72.993 37.5134 73.5969 36.7147C74.4205 35.6258 74.6267 34.6626 73.8174 33.2765C76.1642 32.6427 78.3135 32.0623 80.5728 31.4521C80.7766 32.0022 80.9569 32.4886 81.0237 32.9216C79.867 33.7318 79.867 33.7318 80.9478 34.36C81.003 33.8672 81.0546 33.407 81.2067 32.891C82.1437 33.6246 82.9803 34.4139 83.8476 35.2321C84.4147 32.8754 85.6127 32.4675 87.4114 33.9387C87.6179 34.1077 87.837 34.264 88.0276 34.4495C89.3756 35.7612 90.6891 37.0034 92.8357 36.9198C94.0066 36.8742 95.1394 37.5471 94.9197 38.9647C94.8187 39.6168 94.0535 40.1664 93.4011 41.0044C93.9803 40.8477 94.4686 40.8519 94.7531 40.6137C95.6924 39.8274 96.4365 40.0633 97.2252 40.836C99.0567 42.6302 100.866 44.1249 103.855 43.7914C105.471 43.6111 106.131 43.4982 105.891 42.4302C106.516 41.55 107.05 41.0891 107.187 40.5315C107.348 39.8701 107.168 39.1254 107.118 37.9988C107.977 38.9645 108.679 39.7526 109.483 40.6551C109.611 40.4491 109.954 40.1519 109.916 39.9155C109.696 38.5438 110.16 37.5769 111.22 36.6574C111.749 36.1988 111.875 35.2436 112.11 34.4902C112.548 33.0842 112.636 31.4659 113.413 30.2957C114.371 28.8528 114.077 27.7795 113.236 26.607C114.211 25.8298 114.739 24.4149 116.334 25.0923C116.46 25.146 116.909 24.7236 117.031 24.4453C117.232 23.9844 117.288 23.4607 117.44 22.8157C119.126 23.4447 120.636 23.6348 121.817 22.1455C121.902 22.0389 122.107 21.9817 122.257 21.9799C123.394 21.9665 124.531 21.9726 125.899 21.9726C125.899 22.5424 125.899 23.4568 125.899 24.3712C126.785 22.6104 129.446 21.7135 131 22.2091C133.056 22.8648 134.259 25.7112 137.007 24.5426C137.18 24.4692 137.491 24.7256 137.74 24.8237C139.075 25.3508 139.343 25.0845 139.598 23.6503C139.743 22.833 140.277 22.0668 140.717 21.3247C141.064 20.7374 141.534 20.2221 141.949 19.6747C143.568 18.0326 144.619 19.5215 145.691 20.4805C146.332 20.1229 146.965 19.7693 147.627 19.4004C147.888 17.8785 148.742 16.9071 150.437 16.7087C150.733 16.6741 151.235 16.2392 151.215 16.0285C151.107 14.8583 150.867 13.7004 150.672 12.5382C150.799 12.508 150.926 12.4779 151.054 12.4477C150.432 12.104 149.811 11.7604 149.115 11.3756C151.458 9.4006 153.897 10.4902 156.201 10.7555C156.671 10.8095 156.97 12.0743 157.409 12.7409C157.69 13.167 158.082 13.5195 158.213 13.6666C159.719 13.2537 160.917 12.7926 162.156 12.6184C163.762 12.3925 163.958 12.7226 163.38 14.4688C164.791 13.9264 164.334 15.0781 164.554 16.0458C165.533 14.41 166.065 15.4341 166.647 16.1325C167.214 15.7212 167.699 15.3693 168.232 14.9831C167.175 14.2351 166.292 13.6098 165.436 13.0039C166.129 12.3656 166.651 11.8852 167.2 11.3805C167.571 11.5847 167.98 11.8101 168.389 12.0354C169.076 11.4966 169.815 11.4458 170.461 11.175C172.186 10.4518 173.887 9.66644 175.548 8.80948C175.738 8.71143 175.556 7.99034 175.646 7.58005C175.757 7.07586 175.939 6.57847 176.158 6.1101C176.277 5.85711 176.698 5.67948 176.71 5.45296C176.831 3.26434 178.934 3.22233 180.09 2.12042C179.662 1.43039 177.804 2.02047 178.209 0.320312C179.831 0.320312 181.452 0.320312 183.179 0.441428C183.426 0.772358 183.531 1.1206 183.717 1.17001C185.15 1.5524 186.631 1.78459 188.035 2.2489C189.15 2.61777 190.682 2.9793 191.135 3.82238C191.945 5.33043 193.117 5.11612 193.94 5.22917C194.452 6.39546 194.886 7.38463 195.32 8.37379C195.32 9.77732 195.32 11.1809 195.24 12.6553C195.083 12.8748 195.006 13.0235 194.929 13.1722C195.059 13.1834 195.19 13.1947 195.32 13.2059Z" fill="#0D68F2" stroke="url(#paint0_linear_11187_5406)" stroke-width="4" mask="url(#path-1-inside-1_11187_5406)"/>
<path d="M195.319 8.22281C194.885 7.38463 194.451 6.39546 193.939 5.22917C193.116 5.11612 191.944 5.33043 191.134 3.82238C190.681 2.9793 189.149 2.61777 188.033 2.2489C186.629 1.78459 185.149 1.5524 183.715 1.17001C183.53 1.1206 183.425 0.772358 183.328 0.441428C187.327 0.320312 191.281 0.320312 195.319 0.320312C195.319 2.90354 195.319 5.48769 195.319 8.22281Z" fill="#0D68F2"/>
<path d="M141.261 202.622C141.207 202.452 141.203 202.29 141.259 202.265C142.845 201.561 144.579 201.19 145.99 200.074C146.152 199.945 146.81 200.243 147.07 200.507C147.232 200.672 147.214 201.261 147.043 201.462C146.08 202.6 146.968 203.213 147.684 203.828C148.887 204.863 150.138 205.842 151.369 206.845C151.293 206.964 151.217 207.082 151.141 207.201C150.576 206.897 149.997 206.616 149.449 206.284C147.186 204.908 144.997 203.372 142.147 203.47C141.887 203.479 141.608 202.966 141.261 202.622Z" fill="#0D68F2"/>
</g>
<defs>
<linearGradient id="paint0_linear_11187_5406" x1="97.8203" y1="0.320312" x2="97.8203" y2="259.32" gradientUnits="userSpaceOnUse">
<stop stop-color="#FFD14B"/>
<stop offset="0.895483" stop-color="#FFD354"/>
<stop offset="0.899523" stop-color="white"/>
</linearGradient>
<clipPath id="clip0_11187_5406">
<rect width="195" height="259" fill="white"/>
</clipPath>
</defs>
</svg>
